<svg width="220" height="335" viewBox="0 0 220 335" fill="none" xmlns="http://www.w3.org/2000/svg">
<path d="M114.219 106.425C113.204 109.645 111.8 112.729 110.037 115.61C108.996 117.492 107.529 119.105 105.753 120.322C104.856 120.927 103.817 121.287 102.737 121.367C101.657 121.448 100.576 121.245 99.5988 120.779C97.2188 119.424 96.4878 116.305 96.5898 113.56C96.6918 110.814 97.3548 108.645 97.7798 105.239C96.7224 108.067 95.2871 110.741 93.5128 113.187C92.7727 114.403 91.7852 115.45 90.6139 116.262C89.4426 117.073 88.1136 117.631 86.7127 117.898C85.2925 118.117 83.8403 117.84 82.6013 117.114C81.3623 116.388 80.4126 115.259 79.9126 113.916C79.6006 112.618 79.6006 111.265 79.9126 109.967C80.5098 106.784 81.5874 103.71 83.1086 100.849C80.8646 103.374 79.6236 106.764 77.3625 109.289C75.1015 111.814 71.0384 113.492 68.3184 111.424C65.5984 109.357 66.1594 104.883 67.3664 101.527C68.8297 97.4167 70.6618 93.4463 72.8405 89.6639C65.3604 84.0543 60.9403 74.5976 59.4783 65.3613C53.0692 23.2469 97.0318 -6.4789 135.69 1.21524C146.503 3.25839 156.564 8.17045 164.812 15.4341C172.673 22.741 178.447 31.9986 181.541 42.2599C184.636 52.5212 184.94 63.4178 182.424 73.835C178.803 88.0031 168.518 99.1375 155.581 106.035C142.643 112.933 125.932 115.238 114.219 106.425Z" fill="white"/>
<path d="M66.7884 145.946C65.7173 142.811 63.9153 139.608 60.4303 140.286C59.4185 140.463 58.4677 140.891 57.6655 141.531C56.8634 142.17 56.2356 143.001 55.8402 143.946C55.3923 145.221 55.413 146.612 55.8988 147.872C56.3845 149.133 57.3037 150.18 58.4922 150.827C59.5971 151.495 60.8724 151.831 62.1643 151.793C61.0005 152.835 60.1972 154.217 59.8693 155.742C59.741 156.958 59.945 158.186 60.4598 159.296C60.9746 160.406 61.7809 161.356 62.7933 162.046C63.9967 162.552 65.3411 162.614 66.5867 162.223C67.8322 161.832 68.8978 161.013 69.5934 159.911C70.6814 157.86 69.9674 155.25 69.5934 153.013C69.5934 153.013 84.4006 145.048 92.4927 141.675C93.0756 142.796 93.8591 143.801 94.8047 144.641C95.3063 145.191 95.945 145.598 96.6557 145.821C97.3665 146.044 98.1239 146.076 98.8508 145.912C100.215 145.369 101.323 144.332 101.953 143.009C102.584 141.686 102.69 140.175 102.251 138.777C101.741 137.443 100.728 136.361 99.4288 135.761C97.9157 135.292 96.3 135.263 94.7707 135.676C96.2225 134.561 97.1948 132.937 97.4908 131.134C97.5168 130.256 97.322 129.384 96.9242 128.6C96.5263 127.816 95.938 127.143 95.2127 126.643C94.3911 126.184 93.474 125.92 92.5331 125.873C91.5923 125.826 90.6533 125.997 89.7897 126.372C86.5766 127.88 88.2257 131.998 89.3477 134.693C81.7486 138.303 74.2175 142.065 66.7884 145.946Z" fill="white"/>
<path d="M179.313 141.133C177.885 144.116 176.95 147.675 179.908 149.607C180.759 150.184 181.742 150.54 182.767 150.64C183.791 150.741 184.825 150.584 185.773 150.183C186.998 149.592 187.97 148.584 188.516 147.341C189.061 146.098 189.143 144.702 188.748 143.404C188.413 142.159 187.736 141.032 186.793 140.15C188.351 140.239 189.895 139.823 191.196 138.964C192.145 138.186 192.862 137.162 193.266 136.005C193.671 134.849 193.749 133.603 193.491 132.405C192.985 131.192 192.062 130.2 190.886 129.606C189.711 129.013 188.362 128.857 187.082 129.168C184.872 129.897 183.546 132.27 182.305 134.252C182.305 134.252 166.121 129.694 157.944 126.491C158.313 125.284 158.457 124.02 158.369 122.762C158.393 122.018 158.219 121.28 157.863 120.625C157.508 119.97 156.984 119.421 156.346 119.034C154.987 118.465 153.462 118.433 152.079 118.942C150.697 119.452 149.56 120.466 148.9 121.779C148.355 123.104 148.355 124.589 148.9 125.914C149.665 127.293 150.801 128.432 152.181 129.202C150.317 128.917 148.415 129.38 146.893 130.49C146.26 131.103 145.79 131.865 145.529 132.706C145.267 133.547 145.222 134.44 145.397 135.303C145.666 136.203 146.14 137.028 146.783 137.713C147.427 138.399 148.221 138.925 149.104 139.252C152.504 140.387 154.204 136.303 155.224 133.575C163.231 136.235 171.272 138.76 179.313 141.133Z" fill="white"/>
<path d="M187.541 176.587C184.617 175.028 181.081 173.943 179.041 176.807C178.427 177.63 178.029 178.593 177.884 179.608C177.738 180.624 177.85 181.659 178.208 182.62C178.748 183.869 179.718 184.885 180.943 185.485C182.168 186.084 183.567 186.229 184.889 185.891C186.171 185.619 187.35 184.991 188.289 184.078C188.148 185.631 188.512 187.187 189.326 188.518C190.07 189.493 191.065 190.25 192.205 190.706C193.346 191.163 194.589 191.303 195.803 191.111C197.042 190.659 198.078 189.78 198.723 188.633C199.369 187.486 199.581 186.147 199.322 184.857C198.693 182.62 196.381 181.214 194.511 179.892C194.511 179.892 199.798 163.961 203.385 155.979C204.582 156.39 205.843 156.585 207.108 156.555C207.852 156.608 208.596 156.463 209.265 156.135C209.934 155.808 210.504 155.31 210.916 154.691C211.549 153.368 211.653 151.854 211.208 150.457C210.763 149.06 209.802 147.884 208.519 147.166C207.223 146.546 205.737 146.449 204.371 146.895C202.969 147.606 201.792 148.692 200.971 150.03C201.25 148.253 200.843 146.437 199.832 144.946C199.242 144.292 198.498 143.795 197.667 143.499C196.836 143.204 195.944 143.118 195.072 143.251C194.158 143.483 193.31 143.922 192.594 144.533C191.877 145.144 191.312 145.912 190.941 146.777C189.666 150.064 193.678 151.861 196.364 153.115C193.151 160.792 190.278 168.673 187.541 176.587Z" fill="white"/>
<path d="M137.084 264.595C133.769 264.697 130.165 265.493 129.808 269.002C129.669 270.033 129.796 271.084 130.177 272.053C130.558 273.023 131.18 273.88 131.984 274.543C133.079 275.361 134.43 275.762 135.795 275.675C137.16 275.588 138.449 275.018 139.43 274.069C140.383 273.196 141.072 272.075 141.419 270.832C142.061 272.273 143.16 273.464 144.547 274.221C145.673 274.708 146.912 274.875 148.126 274.704C149.341 274.534 150.485 274.033 151.433 273.255C152.297 272.26 152.773 270.988 152.773 269.671C152.773 268.354 152.297 267.082 151.433 266.087C149.733 264.392 147.063 264.392 144.785 264.172C144.785 264.172 141.385 247.733 140.535 239.022C141.779 238.789 142.971 238.336 144.054 237.683C144.726 237.359 145.3 236.864 145.718 236.248C146.136 235.632 146.383 234.917 146.434 234.175C146.334 232.693 145.666 231.306 144.567 230.303C143.469 229.299 142.025 228.756 140.535 228.785C139.12 228.842 137.783 229.451 136.812 230.48C135.926 231.79 135.431 233.324 135.384 234.903C134.746 233.188 133.467 231.785 131.814 230.988C130.976 230.707 130.081 230.64 129.211 230.794C128.34 230.948 127.523 231.318 126.833 231.87C126.155 232.519 125.636 233.316 125.318 234.198C124.999 235.079 124.89 236.023 124.997 236.954C125.524 240.462 129.944 240.089 132.868 239.784C134.075 248.105 135.52 256.376 137.084 264.595Z" fill="white"/>
<path d="M88.9567 255.749C85.9986 254.257 82.4456 253.241 80.4566 256.156C79.8609 256.988 79.4836 257.956 79.3589 258.972C79.2342 259.987 79.3661 261.017 79.7426 261.968C80.3095 263.219 81.3077 264.224 82.5557 264.803C83.8036 265.381 85.2184 265.494 86.5427 265.121C87.8357 264.828 89.0164 264.169 89.9427 263.223C89.8247 264.782 90.225 266.336 91.0817 267.646C91.8368 268.611 92.8435 269.351 93.9918 269.784C95.1401 270.218 96.3858 270.328 97.5928 270.103C98.8256 269.631 99.8472 268.733 100.471 267.572C101.095 266.412 101.28 265.067 100.993 263.782C100.313 261.562 97.9838 260.189 96.0798 258.901C96.0798 258.901 101.027 242.886 104.444 234.819C105.645 235.207 106.906 235.379 108.167 235.327C108.915 235.364 109.66 235.203 110.325 234.861C110.991 234.519 111.554 234.007 111.958 233.378C112.557 232.04 112.626 230.525 112.15 229.138C111.673 227.751 110.688 226.596 109.391 225.904C108.084 225.312 106.598 225.245 105.243 225.718C103.836 226.454 102.66 227.562 101.843 228.921C102.09 227.131 101.646 225.314 100.602 223.837C100.011 223.174 99.2617 222.671 98.4235 222.375C97.5852 222.078 96.6854 221.998 95.8078 222.142C94.8994 222.39 94.0604 222.843 93.3559 223.466C92.6513 224.089 92.1 224.865 91.7447 225.735C90.5377 229.124 94.5838 230.819 97.3038 231.988C94.1928 239.852 91.5237 247.8 88.9567 255.749Z" fill="white"/>
<path d="M72.6704 302.286C69.7124 300.795 66.1594 299.778 64.1703 302.693C63.5732 303.529 63.1951 304.5 63.0704 305.518C62.9457 306.536 63.0784 307.569 63.4563 308.523C64.029 309.768 65.0288 310.768 66.2756 311.343C67.5224 311.918 68.9341 312.029 70.2564 311.658C71.5122 311.346 72.6549 310.688 73.5545 309.76C73.4365 311.319 73.8368 312.874 74.6935 314.184C75.4461 315.152 76.4525 315.894 77.6015 316.327C78.7506 316.761 79.9975 316.87 81.2046 316.641C82.4374 316.169 83.4589 315.271 84.083 314.11C84.7072 312.95 84.8922 311.605 84.6046 310.32C83.9246 308.099 81.5956 306.727 79.6916 305.456C79.6916 305.456 84.6386 289.423 88.0557 281.356C89.2567 281.744 90.5173 281.916 91.7787 281.865C92.5255 281.905 93.2697 281.748 93.9356 281.409C94.6016 281.069 95.1654 280.56 95.5698 279.933C96.1733 278.595 96.2439 277.078 95.7672 275.69C95.2905 274.303 94.3022 273.147 93.0027 272.459C92.3575 272.158 91.659 271.986 90.9473 271.954C90.2356 271.922 89.5245 272.03 88.8547 272.273C87.4454 272.998 86.2676 274.101 85.4546 275.459C85.7 273.669 85.2567 271.852 84.2136 270.374C83.6122 269.729 82.8587 269.244 82.0215 268.963C81.1843 268.682 80.2899 268.614 79.4195 268.764C78.5123 269.015 77.6745 269.469 76.9702 270.091C76.266 270.714 75.714 271.489 75.3565 272.357C74.1495 275.747 78.1955 277.442 80.9156 278.611C77.9575 286.407 75.2375 294.338 72.6704 302.286Z" fill="white"/>
<path d="M189.394 260.24C190.074 263.477 191.502 266.883 195.021 266.612C196.05 266.552 197.048 266.237 197.923 265.696C198.799 265.154 199.525 264.403 200.036 263.511C200.656 262.304 200.826 260.917 200.514 259.598C200.203 258.278 199.431 257.112 198.336 256.308C197.311 255.524 196.086 255.042 194.8 254.918C196.079 254.018 197.037 252.736 197.537 251.258C197.819 250.066 197.765 248.819 197.381 247.656C196.997 246.492 196.298 245.457 195.361 244.665C194.222 244.005 192.882 243.775 191.587 244.018C190.292 244.26 189.127 244.959 188.306 245.987C186.98 247.902 187.388 250.58 187.575 252.766C187.575 252.766 171.935 258.969 163.486 261.358C163.041 260.182 162.384 259.096 161.548 258.155C161.11 257.556 160.521 257.083 159.84 256.785C159.158 256.488 158.41 256.376 157.672 256.46C156.25 256.834 155.023 257.73 154.237 258.969C153.452 260.208 153.167 261.697 153.439 263.138C153.602 263.836 153.902 264.495 154.322 265.077C154.742 265.659 155.274 266.152 155.887 266.527C157.341 267.157 158.941 267.374 160.511 267.154C158.931 268.08 157.773 269.58 157.281 271.34C157.141 272.207 157.223 273.096 157.52 273.923C157.818 274.749 158.32 275.488 158.981 276.069C159.744 276.618 160.625 276.985 161.553 277.14C162.482 277.296 163.434 277.237 164.336 276.967C167.736 275.831 166.546 271.561 165.73 268.747C173.669 266.07 181.591 263.239 189.394 260.24Z" fill="white"/>
<path d="M36.137 149.132C32.9239 149.98 29.5919 151.59 30.0509 155.081C30.1674 156.103 30.5399 157.08 31.134 157.921C31.7281 158.762 32.5249 159.44 33.4509 159.894C34.7003 160.443 36.1057 160.528 37.4124 160.133C38.7191 159.738 39.8408 158.89 40.574 157.742C41.3107 156.683 41.7294 155.437 41.781 154.149C42.7434 155.382 44.0787 156.274 45.5891 156.691C46.7898 156.904 48.0261 156.786 49.1645 156.35C50.303 155.914 51.3004 155.176 52.0492 154.217C52.6499 153.045 52.8087 151.698 52.4967 150.419C52.1847 149.141 51.4226 148.017 50.3492 147.251C48.3771 146.048 45.7081 146.573 43.4301 146.878C43.4301 146.878 36.409 131.626 33.5699 123.355C34.7285 122.853 35.7835 122.14 36.681 121.254C37.265 120.791 37.7146 120.181 37.9836 119.487C38.2525 118.792 38.331 118.04 38.211 117.305C37.7694 115.902 36.808 114.72 35.5224 113.999C34.2369 113.278 32.724 113.072 31.2919 113.424C29.9226 113.847 28.771 114.783 28.0789 116.034C27.5247 117.512 27.3951 119.114 27.7048 120.661C26.6821 119.149 25.1197 118.082 23.3358 117.678C22.4587 117.59 21.5735 117.724 20.7622 118.067C19.9509 118.411 19.2398 118.953 18.6947 119.644C18.1812 120.433 17.8573 121.331 17.7482 122.265C17.6391 123.2 17.7477 124.147 18.0657 125.033C19.3747 128.321 23.5908 126.948 26.3788 125.999C29.4389 133.778 32.7199 141.506 36.137 149.132Z" fill="white"/>
<path d="M23.9988 115.017C23.1015 115.45 22.1219 115.688 21.1252 115.714C20.1286 115.74 19.1378 115.555 18.2187 115.17C17.5119 114.716 16.8904 114.143 16.3827 113.475C14.8484 111.54 13.5422 109.436 12.4897 107.204C11.577 105.675 11.2909 103.854 11.6906 102.12C12.3707 100.188 14.4277 99.1713 16.3147 98.3578C18.4158 97.35 20.6764 96.7135 22.9958 96.4766C24.1571 96.3703 25.3273 96.5355 26.4134 96.9592C27.4994 97.3828 28.4714 98.0532 29.2519 98.9171C30.1335 100.257 30.7134 101.772 30.9519 103.357C31.4619 105.493 32.6519 109.357 31.1899 111.356C30.2851 112.221 29.2077 112.885 28.0279 113.305C26.7218 113.959 25.3762 114.531 23.9988 115.017Z" fill="white"/>
<path d="M39.707 97.5445C39.845 97.2261 39.9162 96.8829 39.9162 96.5361C39.9162 96.1893 39.845 95.8461 39.707 95.5277C39.5274 95.2471 39.2738 95.0212 38.9739 94.8747C38.674 94.7282 38.3395 94.6668 38.007 94.6973C37.3446 94.7677 36.703 94.9694 36.1199 95.2905C35.1638 95.7249 34.2761 96.2958 33.4849 96.9852C32.6876 97.6598 32.1474 98.5873 31.9549 99.6121C31.8718 100.411 31.9528 101.218 32.1929 101.985C32.4479 102.934 32.8899 104.408 33.8929 104.9C34.8959 105.391 35.5929 104.476 36.239 103.713C37.7586 101.882 38.9335 99.7924 39.707 97.5445Z" fill="white"/>
<path d="M33.0939 82.1561C33.0939 81.2917 32.7029 80.241 31.8529 80.0546C31.0029 79.8682 30.2889 80.6647 29.8299 81.3934C27.8193 85.0365 26.4128 88.9796 25.6649 93.0702C24.8318 96.5783 29.8809 97.5104 31.2579 94.443C32.855 90.5549 33.4849 86.3394 33.0939 82.1561Z" fill="white"/>
<path d="M18.7457 80.4782C18.2357 79.7664 17.4537 79.0207 16.6207 79.275C15.7877 79.5292 15.5667 80.563 15.5327 81.4273C15.5833 85.5845 16.3125 89.7058 17.6917 93.6294C18.6947 97.0189 23.5398 95.3242 23.2338 92.0703C22.6854 87.905 21.1466 83.9307 18.7457 80.4782Z" fill="white"/>
<path d="M9.19155 84.3084C8.56254 83.7153 7.64453 83.1221 6.87952 83.5458C6.1145 83.9695 6.09751 85.0202 6.23351 85.8676C7.13128 89.933 8.6751 93.8292 10.8066 97.4088C12.5066 100.595 16.9096 97.985 15.9066 94.765C14.5458 90.7911 12.2421 87.2038 9.19155 84.3084Z" fill="white"/>
<path d="M2.03447 96.3243C1.68796 96.236 1.32236 96.2589 0.98967 96.3897C0.656983 96.5206 0.374167 96.7527 0.181449 97.053C0.0237715 97.3654 -0.0330944 97.7188 0.0186474 98.0647C0.0703892 98.4106 0.228202 98.7321 0.470449 98.985C2.32597 101.257 4.64364 103.111 7.27055 104.425C9.46358 105.696 11.7076 101.544 9.99059 99.8663C7.77598 97.8843 4.9931 96.6454 2.03447 96.3243Z" fill="white"/>
<path d="M187.439 191.603C188.355 191.989 189.176 192.568 189.848 193.299C190.52 194.03 191.026 194.896 191.332 195.84C191.448 196.688 191.402 197.551 191.196 198.382C190.732 200.803 189.99 203.163 188.986 205.415C188.417 207.117 187.194 208.525 185.586 209.33C183.682 210.075 181.557 209.194 179.721 208.296C177.58 207.38 175.617 206.095 173.924 204.5C173.08 203.695 172.439 202.703 172.052 201.604C171.665 200.506 171.544 199.332 171.697 198.178C172.107 196.614 172.862 195.161 173.907 193.925C175.182 192.145 177.307 188.739 179.806 188.518C181.052 188.631 182.259 189.013 183.342 189.637C184.752 190.197 186.121 190.853 187.439 191.603Z" fill="white"/>
<path d="M163.894 191.162C163.558 191.252 163.244 191.409 162.972 191.625C162.7 191.841 162.476 192.11 162.313 192.416C162.217 192.733 162.211 193.07 162.295 193.39C162.379 193.71 162.55 194 162.789 194.229C163.282 194.682 163.859 195.033 164.489 195.263C165.43 195.716 166.432 196.03 167.464 196.195C168.496 196.346 169.548 196.149 170.456 195.636C171.135 195.196 171.714 194.618 172.156 193.941C172.906 193.07 173.311 191.955 173.295 190.806C173.04 189.654 171.85 189.789 170.881 189.806C168.488 189.828 166.12 190.287 163.894 191.162Z" fill="white"/>
<path d="M156.55 206.211C155.938 206.839 155.36 207.754 155.768 208.516C156.176 209.279 157.247 209.296 158.097 209.177C162.177 208.307 166.091 206.79 169.691 204.686C172.904 202.991 170.303 198.602 167.073 199.602C163.082 200.928 159.472 203.195 156.55 206.211Z" fill="white"/>
<path d="M164.659 218.125C164.438 218.973 164.37 220.057 165.118 220.532C165.866 221.006 166.818 220.532 167.464 219.939C170.592 217.181 173.25 213.936 175.335 210.33C177.29 207.313 172.853 204.754 170.524 207.177C167.709 210.3 165.696 214.057 164.659 218.125Z" fill="white"/>
<path d="M173.822 222.854C173.822 223.718 173.941 224.803 174.757 225.108C175.573 225.413 176.457 224.718 176.933 224.057C179.443 220.733 181.396 217.024 182.713 213.075C184.022 209.686 179.16 208.11 177.358 210.94C175.237 214.571 174.024 218.657 173.822 222.854Z" fill="white"/>
<path d="M187.592 220.312C187.76 220.61 188.008 220.855 188.308 221.02C188.609 221.185 188.95 221.262 189.292 221.244C189.633 221.157 189.939 220.968 190.168 220.7C190.396 220.433 190.536 220.102 190.567 219.752C191.067 216.851 190.951 213.878 190.227 211.025C189.751 208.533 185.127 209.55 184.974 211.94C184.937 214.936 185.853 217.867 187.592 220.312Z" fill="white"/>
<path d="M141.623 194.704C149.426 198.382 155.02 204.449 153.286 214.499C152.828 217.573 151.392 220.419 149.188 222.617C146.162 225.498 142.286 225.87 138.325 225.565C135.073 225.513 131.918 224.453 129.298 222.532C126.221 219.956 125.099 215.753 124.198 211.923C124.042 213.955 123.313 215.902 122.095 217.54C120.877 219.177 119.219 220.438 117.313 221.176C113.476 222.605 109.25 222.605 105.413 221.176C103.426 220.545 101.599 219.493 100.058 218.092C96.0287 214.261 95.6887 207.923 96.5048 202.483C96.7871 199.939 97.5059 197.463 98.6298 195.162C102.149 188.552 110.394 189.061 116.803 189.433C123.841 189.806 133.837 191.06 141.623 194.704Z" fill="white"/>
<path d="M133.429 203.246C126.714 208.821 132.732 221.888 141.504 217.465C142.948 216.653 144.088 215.397 144.753 213.884C145.418 212.371 145.573 210.684 145.193 209.076C144.343 203.364 137.543 199.822 133.429 203.246Z" fill="#101921"/>
<path d="M107.368 197.822C100.568 203.398 106.671 216.465 115.46 212.041C116.932 211.234 118.097 209.969 118.779 208.438C119.461 206.908 119.62 205.197 119.234 203.568C118.299 197.992 111.482 194.399 107.368 197.822Z" fill="#101921"/>
<path d="M128.346 120.084C129.661 119.378 131.184 119.156 132.647 119.457C134.126 119.457 135.571 119.457 137.05 119.457C139.379 119.593 140.909 123.186 138.359 124.304C135.435 125.592 129.434 126.474 127.564 123.05C127.291 122.55 127.22 121.964 127.365 121.413C127.511 120.862 127.861 120.387 128.346 120.084Z" fill="white"/>
<path d="M104.631 140.066C112.837 136.855 121.773 135.963 130.454 137.49C130.681 134.477 131.165 131.489 131.899 128.558C132.028 128.118 132.296 127.732 132.664 127.457C133.032 127.182 133.48 127.033 133.939 127.033C134.399 127.033 134.846 127.182 135.214 127.457C135.582 127.732 135.851 128.118 135.979 128.558C136.952 131.939 137.405 135.448 137.322 138.964C145.822 141.269 156.72 145.607 161.565 153.166C161.717 153.411 161.793 153.696 161.781 153.985C161.769 154.273 161.671 154.551 161.499 154.783C161.326 155.015 161.088 155.19 160.815 155.285C160.542 155.381 160.246 155.392 159.967 155.318C151.994 153.623 144.853 148.302 136.982 145.811C136.676 148.844 136.234 151.827 135.843 154.623C142.534 156.286 148.563 159.932 153.133 165.08C153.515 165.448 153.747 165.943 153.786 166.471C153.825 166.998 153.668 167.522 153.344 167.942C153.02 168.361 152.552 168.647 152.03 168.744C151.508 168.841 150.969 168.744 150.515 168.469C145.412 165.838 140.148 163.529 134.755 161.555C134.211 164.56 133.594 167.532 132.902 170.469C137.305 171.927 143.51 174.774 142.983 179.282C142.97 179.606 142.857 179.919 142.66 180.176C142.462 180.434 142.189 180.625 141.878 180.722C138.478 181.892 134.517 178.841 131.1 177.333C130.318 180.129 129.4 182.909 128.533 185.671C127.292 189.4 121.325 187.806 122.583 183.976C123.467 181.333 124.283 178.655 125.031 175.977C121.087 175.774 117.347 176.536 113.233 176.299C112.596 176.28 111.982 176.057 111.481 175.664C110.98 175.271 110.62 174.727 110.452 174.114C110.284 173.501 110.319 172.851 110.55 172.258C110.782 171.666 111.198 171.164 111.737 170.825C115.783 168.08 121.716 168.046 126.833 168.91C127.513 165.961 128.12 162.995 128.652 160.013C121.852 158.996 115.698 160.47 108.847 160.419C108.224 160.399 107.624 160.18 107.135 159.794C106.646 159.408 106.295 158.876 106.133 158.276C105.971 157.675 106.007 157.039 106.236 156.461C106.464 155.883 106.873 155.393 107.402 155.064C113.709 151.675 122.464 152.013 129.604 153.217C129.893 150.319 129.893 147.285 130.063 144.252C122.09 143.044 113.945 143.688 106.263 146.133C102.302 147.336 100.993 141.591 104.631 140.066Z" fill="white"/>
<path d="M208.4 241.242C209.817 240.906 211.292 240.897 212.712 241.218C214.133 241.538 215.461 242.178 216.594 243.089C219.195 245.496 219.62 249.444 219.79 253.003C220.232 262.155 220.181 271.544 217.104 280.119C216.983 280.699 216.729 281.243 216.364 281.71C215.999 282.177 215.531 282.555 214.996 282.814C213.109 283.39 211.596 281.221 210.865 279.424C207.465 271.493 204.626 263.375 202.076 255.156C199.747 247.699 199.339 242.954 208.4 241.242Z" fill="white"/>
<path d="M76.0705 326.691C75.9606 328.123 75.5274 329.511 74.8032 330.753C74.079 331.994 73.0825 333.056 71.8884 333.86C68.7944 335.673 64.8843 334.893 61.4163 333.995C52.5252 331.69 43.549 328.911 36.2219 323.335C35.7008 323.044 35.2536 322.637 34.9147 322.146C34.5758 321.656 34.3542 321.094 34.2669 320.505C34.2669 318.556 36.7829 317.776 38.738 317.607C47.3401 316.827 55.9649 316.455 64.6123 316.488C72.4834 316.556 77.1925 317.573 76.0705 326.691Z" fill="white"/>
<path d="M90.4187 35.3133C87.0512 35.8687 83.9294 37.4218 81.4596 39.7705C78.3932 42.4498 75.8762 45.6957 74.0475 49.3288C71.8709 53.4293 70.9992 58.0936 71.5485 62.7004C71.8561 64.9879 72.6957 67.1722 74.0003 69.0789C75.3049 70.9856 77.0384 72.562 79.0626 73.6823C85.2506 76.7837 93.2577 73.9535 97.5928 68.5981C101.928 63.2427 103.118 55.9214 102.693 48.9391C102.268 41.9567 98.1878 34.432 90.4187 35.3133Z" fill="#101921"/>
<path d="M139.668 56.9213C136.376 56.0181 132.886 56.1244 129.655 57.2264C125.748 58.3836 122.104 60.289 118.928 62.836C115.226 65.6383 112.478 69.5077 111.057 73.9196C110.371 76.1233 110.214 78.4567 110.598 80.732C110.982 83.0073 111.896 85.161 113.267 87.02C117.585 92.4431 126.051 93.2058 132.239 90.1044C138.427 87.003 142.609 80.8511 145.193 74.445C147.777 68.0388 147.097 59.3109 139.668 56.9213Z" fill="#101921"/>
<path d="M89.5687 86.427C90.3997 84.5795 91.791 83.0384 93.5468 82.0206C95.2468 80.7326 96.9468 79.5463 98.6468 78.4278C98.9943 78.2267 99.3834 78.1075 99.7842 78.0793C100.185 78.0511 100.587 78.1146 100.959 78.2651C101.332 78.4156 101.665 78.6489 101.933 78.9474C102.201 79.2458 102.397 79.6014 102.506 79.9869C103.806 83.9334 104.213 88.1181 103.696 92.2399C103.407 94.0533 100.67 93.816 100.296 92.2399C99.6158 89.8334 99.1228 87.393 98.5958 84.9695C98.0008 85.4101 97.4228 85.8677 96.8958 86.3253C95.6933 87.6186 94.2107 88.6213 92.5607 89.2572C92.1587 89.3937 91.7268 89.4181 91.3119 89.3276C90.8969 89.2371 90.5147 89.0351 90.2065 88.7437C89.8984 88.4522 89.6761 88.0823 89.5637 87.6739C89.4513 87.2656 89.453 86.8344 89.5687 86.427Z" fill="#101921"/>
</svg>
