<svg width="636" height="483" viewBox="0 0 636 483" fill="none" xmlns="http://www.w3.org/2000/svg">
<rect opacity="0.5" x="209.5" y="30.5" width="395" height="28" rx="14" fill="#D7D7D7" fill-opacity="0.3" stroke="#D7D7D7"/>
<rect opacity="0.5" x="389" y="42" width="24" height="6" rx="3" fill="#D7D7D7"/>
<rect opacity="0.5" x="444" y="42" width="24" height="6" rx="3" fill="#D7D7D7"/>
<rect opacity="0.5" x="499" y="42" width="24" height="6" rx="3" fill="#D7D7D7"/>
<rect opacity="0.5" x="554" y="42" width="24" height="6" rx="3" fill="#D7D7D7"/>
<path opacity="0.5" d="M233.971 37.5473L232.668 43.5499L238.518 45.4234L232.668 47.2968L233.971 53.2995L229.423 49.1703L224.876 53.2995L226.178 47.2968L220.329 45.4234L226.178 43.5499L224.876 37.5473L229.423 41.6764L233.971 37.5473Z" fill="#D7D7D7"/>
<circle opacity="0.5" cx="208" cy="276" r="177.5" fill="#D7D7D7" fill-opacity="0.3" stroke="#D7D7D7"/>
<path opacity="0.3" d="M198.5 98L454.5 65.5L380.493 320.103C378.802 327.221 376.883 333.577 375 339L380.493 320.103C389.872 280.614 392.223 217.682 342.5 160.5C292.5 103 223.333 94.8473 198.5 98Z" fill="url(#paint0_linear_138_6955)"/>
<g clip-path="url(#clip0_138_6955)">
<path opacity="0.2" d="M-24 170H397.5" stroke="#D7D7D7"/>
<path opacity="0.2" d="M314.75 45.25L314.75 466.75" stroke="#D7D7D7"/>
<path opacity="0.2" d="M-24 188H397.5" stroke="#D7D7D7"/>
<path opacity="0.2" d="M296.75 45.25L296.75 466.75" stroke="#D7D7D7"/>
<path opacity="0.2" d="M-24 206H397.5" stroke="#D7D7D7"/>
<path opacity="0.2" d="M278.75 45.25L278.75 466.75" stroke="#D7D7D7"/>
<path opacity="0.2" d="M-24 224H397.5" stroke="#D7D7D7"/>
<path opacity="0.2" d="M260.75 45.25L260.75 466.75" stroke="#D7D7D7"/>
<path opacity="0.2" d="M-24 242H397.5" stroke="#D7D7D7"/>
<path opacity="0.2" d="M242.75 45.25L242.75 466.75" stroke="#D7D7D7"/>
<path opacity="0.2" d="M-24 260H397.5" stroke="#D7D7D7"/>
<path opacity="0.2" d="M224.75 45.25L224.75 466.75" stroke="#D7D7D7"/>
<path opacity="0.2" d="M-24 278H397.5" stroke="#D7D7D7"/>
<path opacity="0.2" d="M206.75 45.25L206.75 466.75" stroke="#D7D7D7"/>
<path opacity="0.2" d="M-24 296H397.5" stroke="#D7D7D7"/>
<path opacity="0.2" d="M188.75 45.25L188.75 466.75" stroke="#D7D7D7"/>
<path opacity="0.2" d="M-24 314H397.5" stroke="#D7D7D7"/>
<path opacity="0.2" d="M170.75 45.25L170.75 466.75" stroke="#D7D7D7"/>
<path opacity="0.2" d="M-24 332H397.5" stroke="#D7D7D7"/>
<path opacity="0.2" d="M152.75 45.25L152.75 466.75" stroke="#D7D7D7"/>
<path opacity="0.2" d="M-24 350H397.5" stroke="#D7D7D7"/>
<path opacity="0.2" d="M134.75 45.25L134.75 466.75" stroke="#D7D7D7"/>
<path opacity="0.2" d="M-24 368H397.5" stroke="#D7D7D7"/>
<path opacity="0.2" d="M116.75 45.25L116.75 466.75" stroke="#D7D7D7"/>
<path opacity="0.2" d="M-24 386H397.5" stroke="#D7D7D7"/>
<path opacity="0.2" d="M98.75 45.25L98.75 466.75" stroke="#D7D7D7"/>
<path opacity="0.2" d="M-24 404H397.5" stroke="#D7D7D7"/>
<path opacity="0.2" d="M80.75 45.25L80.75 466.75" stroke="#D7D7D7"/>
<path opacity="0.2" d="M-24 422H397.5" stroke="#D7D7D7"/>
<path opacity="0.2" d="M62.75 45.25L62.75 466.75" stroke="#D7D7D7"/>
<path opacity="0.2" d="M-24 440H397.5" stroke="#D7D7D7"/>
<path opacity="0.2" d="M44.75 45.25L44.75 466.75" stroke="#D7D7D7"/>
<path opacity="0.2" d="M-24 116H397.5" stroke="#D7D7D7"/>
<path opacity="0.2" d="M368.75 45.25L368.75 466.75" stroke="#D7D7D7"/>
<path opacity="0.2" d="M-24 152H397.5" stroke="#D7D7D7"/>
<path opacity="0.2" d="M332.75 45.25L332.75 466.75" stroke="#D7D7D7"/>
<path opacity="0.2" d="M-24 134H397.5" stroke="#D7D7D7"/>
<path opacity="0.2" d="M350.75 45.25L350.75 466.75" stroke="#D7D7D7"/>
<path opacity="0.2" d="M-24 98H397.5" stroke="#D7D7D7"/>
<circle opacity="0.4" cx="207" cy="276" r="48.5" fill="#D7D7D7" fill-opacity="0.6" stroke="#D7D7D7"/>
<path opacity="0.8" d="M182.444 283H180.944V267.664H182.444V283ZM191.732 283H190.232V267.664H191.732V283ZM181.808 274.444H190.856V275.704H181.808V274.444ZM199.192 283V267.892H200.692V283H199.192ZM194.5 268.924V267.664H205.384V268.924H194.5ZM207.726 283L208.374 267.664H210.786L214.818 279.436H214.998L219.03 267.664H221.454L222.09 283H220.626L220.374 276.124L220.122 269.188H219.894L215.754 281.236H214.062L209.934 269.188H209.706L209.454 276.136L209.202 283H207.726ZM227.186 283H225.686V267.664H227.186V283ZM226.466 281.716H234.602V283H226.466V281.716Z" fill="#D7D7D7"/>
<circle opacity="0.4" cx="207.5" cy="276.5" r="54" stroke="#D7D7D7" stroke-dasharray="2 2"/>
<circle opacity="0.3" cx="117" cy="206" r="10" fill="#D7D7D7"/>
<circle opacity="0.3" cx="117" cy="206" r="5" fill="#D7D7D7"/>
<circle opacity="0.3" cx="279.5" cy="115.5" r="20.5" fill="#D7D7D7"/>
<circle opacity="0.3" cx="297" cy="386" r="10" fill="#D7D7D7"/>
<circle opacity="0.3" cx="62.5" cy="367.5" r="17.5" fill="#D7D7D7"/>
<circle opacity="0.3" cx="62.5" cy="367.5" r="8.75" fill="#D7D7D7"/>
<g filter="url(#filter0_f_138_6955)">
<path d="M163.5 308.5L58.5 370.5" stroke="#D7D7D7" stroke-width="2"/>
</g>
<path d="M163.5 308.5L58.5 370.5" stroke="#D7D7D7" stroke-width="2"/>
<path opacity="0.5" d="M226 328C193 337 172 319.5 163.5 308L50.5 374.5C58.3333 388 83.8 421.1 123 445.5C162.2 469.9 224.333 462.333 250.5 455.5L226 328Z" fill="url(#paint1_linear_138_6955)"/>
</g>
<path opacity="0.8" d="M400.76 347.32C400.803 347.491 400.824 347.704 400.824 347.96C400.824 348.205 400.803 348.419 400.76 348.6C400.803 348.771 400.824 348.984 400.824 349.24C400.824 349.485 400.803 349.699 400.76 349.88C400.803 350.051 400.824 350.264 400.824 350.52C400.824 350.765 400.803 350.979 400.76 351.16C400.803 351.331 400.824 351.544 400.824 351.8C400.824 352.045 400.803 352.259 400.76 352.44C400.803 352.611 400.824 352.824 400.824 353.08C400.824 353.325 400.803 353.539 400.76 353.72C400.803 353.891 400.824 354.104 400.824 354.36C400.824 354.605 400.803 354.819 400.76 355H399.48C399.437 354.819 399.416 354.605 399.416 354.36C399.416 354.104 399.437 353.891 399.48 353.72C399.437 353.539 399.416 353.325 399.416 353.08C399.416 352.824 399.437 352.611 399.48 352.44C399.437 352.259 399.416 352.045 399.416 351.8C399.416 351.544 399.437 351.331 399.48 351.16H396.92C396.963 351.331 396.984 351.544 396.984 351.8C396.984 352.045 396.963 352.259 396.92 352.44C396.963 352.611 396.984 352.824 396.984 353.08C396.984 353.325 396.963 353.539 396.92 353.72C396.963 353.891 396.984 354.104 396.984 354.36C396.984 354.605 396.963 354.819 396.92 355H395.64C395.597 354.819 395.576 354.605 395.576 354.36C395.576 354.104 395.597 353.891 395.64 353.72C395.597 353.539 395.576 353.325 395.576 353.08C395.576 352.824 395.597 352.611 395.64 352.44C395.597 352.259 395.576 352.045 395.576 351.8C395.576 351.544 395.597 351.331 395.64 351.16C395.597 350.979 395.576 350.765 395.576 350.52C395.576 350.264 395.597 350.051 395.64 349.88C395.597 349.699 395.576 349.485 395.576 349.24C395.576 348.984 395.597 348.771 395.64 348.6C395.597 348.419 395.576 348.205 395.576 347.96C395.576 347.704 395.597 347.491 395.64 347.32C395.597 347.139 395.576 346.925 395.576 346.68C395.576 346.424 395.597 346.211 395.64 346.04H396.92C396.963 346.211 396.984 346.424 396.984 346.68C396.984 346.925 396.963 347.139 396.92 347.32C396.963 347.491 396.984 347.704 396.984 347.96C396.984 348.205 396.963 348.419 396.92 348.6C396.963 348.771 396.984 348.984 396.984 349.24C396.984 349.485 396.963 349.699 396.92 349.88H399.48C399.437 349.699 399.416 349.485 399.416 349.24C399.416 348.984 399.437 348.771 399.48 348.6C399.437 348.419 399.416 348.205 399.416 347.96C399.416 347.704 399.437 347.491 399.48 347.32C399.437 347.139 399.416 346.925 399.416 346.68C399.416 346.424 399.437 346.211 399.48 346.04H400.76C400.803 346.211 400.824 346.424 400.824 346.68C400.824 346.925 400.803 347.139 400.76 347.32ZM407.23 346.68C407.23 346.925 407.209 347.139 407.166 347.32H405.246C405.289 347.491 405.31 347.704 405.31 347.96C405.31 348.205 405.289 348.419 405.246 348.6C405.289 348.771 405.31 348.984 405.31 349.24C405.31 349.485 405.289 349.699 405.246 349.88C405.289 350.051 405.31 350.264 405.31 350.52C405.31 350.765 405.289 350.979 405.246 351.16C405.289 351.331 405.31 351.544 405.31 351.8C405.31 352.045 405.289 352.259 405.246 352.44C405.289 352.611 405.31 352.824 405.31 353.08C405.31 353.325 405.289 353.539 405.246 353.72C405.289 353.891 405.31 354.104 405.31 354.36C405.31 354.605 405.289 354.819 405.246 355H403.966C403.924 354.819 403.902 354.605 403.902 354.36C403.902 354.104 403.924 353.891 403.966 353.72C403.924 353.539 403.902 353.325 403.902 353.08C403.902 352.824 403.924 352.611 403.966 352.44C403.924 352.259 403.902 352.045 403.902 351.8C403.902 351.544 403.924 351.331 403.966 351.16C403.924 350.979 403.902 350.765 403.902 350.52C403.902 350.264 403.924 350.051 403.966 349.88C403.924 349.699 403.902 349.485 403.902 349.24C403.902 348.984 403.924 348.771 403.966 348.6C403.924 348.419 403.902 348.205 403.902 347.96C403.902 347.704 403.924 347.491 403.966 347.32H402.046C402.004 347.139 401.982 346.925 401.982 346.68C401.982 346.424 402.004 346.211 402.046 346.04H407.166C407.209 346.211 407.23 346.424 407.23 346.68ZM413.573 347.32C413.615 347.491 413.637 347.704 413.637 347.96C413.637 348.205 413.615 348.419 413.573 348.6C413.615 348.771 413.637 348.984 413.637 349.24C413.637 349.485 413.615 349.699 413.573 349.88C413.615 350.051 413.637 350.264 413.637 350.52C413.637 350.765 413.615 350.979 413.573 351.16C413.615 351.331 413.637 351.544 413.637 351.8C413.637 352.045 413.615 352.259 413.573 352.44C413.615 352.611 413.637 352.824 413.637 353.08C413.637 353.325 413.615 353.539 413.573 353.72C413.615 353.891 413.637 354.104 413.637 354.36C413.637 354.605 413.615 354.819 413.573 355H412.293C412.25 354.819 412.229 354.605 412.229 354.36C412.229 354.104 412.25 353.891 412.293 353.72C412.25 353.539 412.229 353.325 412.229 353.08C412.229 352.824 412.25 352.611 412.293 352.44C412.25 352.259 412.229 352.045 412.229 351.8C412.229 351.544 412.25 351.331 412.293 351.16C412.25 350.979 412.229 350.765 412.229 350.52C412.229 350.264 412.25 350.051 412.293 349.88C412.25 349.699 412.229 349.485 412.229 349.24C412.229 348.984 412.25 348.771 412.293 348.6H411.812C411.855 348.771 411.877 348.984 411.877 349.24C411.877 349.485 411.855 349.699 411.812 349.88C411.855 350.051 411.877 350.264 411.877 350.52C411.877 350.765 411.855 350.979 411.812 351.16H411.493C411.535 351.331 411.557 351.544 411.557 351.8C411.557 352.045 411.535 352.259 411.493 352.44C411.535 352.611 411.557 352.824 411.557 353.08C411.557 353.325 411.535 353.539 411.493 353.72H410.533C410.49 353.539 410.469 353.325 410.469 353.08C410.469 352.824 410.49 352.611 410.533 352.44C410.49 352.259 410.469 352.045 410.469 351.8C410.469 351.544 410.49 351.331 410.533 351.16H410.213C410.17 350.979 410.149 350.765 410.149 350.52C410.149 350.264 410.17 350.051 410.213 349.88C410.17 349.699 410.149 349.485 410.149 349.24C410.149 348.984 410.17 348.771 410.213 348.6H409.733C409.775 348.771 409.797 348.984 409.797 349.24C409.797 349.485 409.775 349.699 409.733 349.88C409.775 350.051 409.797 350.264 409.797 350.52C409.797 350.765 409.775 350.979 409.733 351.16C409.775 351.331 409.797 351.544 409.797 351.8C409.797 352.045 409.775 352.259 409.733 352.44C409.775 352.611 409.797 352.824 409.797 353.08C409.797 353.325 409.775 353.539 409.733 353.72C409.775 353.891 409.797 354.104 409.797 354.36C409.797 354.605 409.775 354.819 409.733 355H408.453C408.41 354.819 408.389 354.605 408.389 354.36C408.389 354.104 408.41 353.891 408.453 353.72C408.41 353.539 408.389 353.325 408.389 353.08C408.389 352.824 408.41 352.611 408.453 352.44C408.41 352.259 408.389 352.045 408.389 351.8C408.389 351.544 408.41 351.331 408.453 351.16C408.41 350.979 408.389 350.765 408.389 350.52C408.389 350.264 408.41 350.051 408.453 349.88C408.41 349.699 408.389 349.485 408.389 349.24C408.389 348.984 408.41 348.771 408.453 348.6C408.41 348.419 408.389 348.205 408.389 347.96C408.389 347.704 408.41 347.491 408.453 347.32C408.41 347.139 408.389 346.925 408.389 346.68C408.389 346.424 408.41 346.211 408.453 346.04H410.053C410.095 346.211 410.117 346.424 410.117 346.68C410.117 346.925 410.095 347.139 410.053 347.32H410.533C410.575 347.491 410.597 347.704 410.597 347.96C410.597 348.205 410.575 348.419 410.533 348.6H410.773C410.815 348.771 410.837 348.984 410.837 349.24C410.837 349.485 410.815 349.699 410.773 349.88H411.253C411.21 349.699 411.189 349.485 411.189 349.24C411.189 348.984 411.21 348.771 411.253 348.6H411.493C411.45 348.419 411.429 348.205 411.429 347.96C411.429 347.704 411.45 347.491 411.493 347.32H411.973C411.93 347.139 411.909 346.925 411.909 346.68C411.909 346.424 411.93 346.211 411.973 346.04H413.573C413.615 346.211 413.637 346.424 413.637 346.68C413.637 346.925 413.615 347.139 413.573 347.32ZM419.979 353.72C420.021 353.891 420.043 354.104 420.043 354.36C420.043 354.605 420.021 354.819 419.979 355H415.499C415.456 354.819 415.435 354.605 415.435 354.36C415.435 354.104 415.456 353.891 415.499 353.72C415.456 353.539 415.435 353.325 415.435 353.08C415.435 352.824 415.456 352.611 415.499 352.44C415.456 352.259 415.435 352.045 415.435 351.8C415.435 351.544 415.456 351.331 415.499 351.16C415.456 350.979 415.435 350.765 415.435 350.52C415.435 350.264 415.456 350.051 415.499 349.88C415.456 349.699 415.435 349.485 415.435 349.24C415.435 348.984 415.456 348.771 415.499 348.6C415.456 348.419 415.435 348.205 415.435 347.96C415.435 347.704 415.456 347.491 415.499 347.32C415.456 347.139 415.435 346.925 415.435 346.68C415.435 346.424 415.456 346.211 415.499 346.04H416.779C416.821 346.211 416.843 346.424 416.843 346.68C416.843 346.925 416.821 347.139 416.779 347.32C416.821 347.491 416.843 347.704 416.843 347.96C416.843 348.205 416.821 348.419 416.779 348.6C416.821 348.771 416.843 348.984 416.843 349.24C416.843 349.485 416.821 349.699 416.779 349.88C416.821 350.051 416.843 350.264 416.843 350.52C416.843 350.765 416.821 350.979 416.779 351.16C416.821 351.331 416.843 351.544 416.843 351.8C416.843 352.045 416.821 352.259 416.779 352.44C416.821 352.611 416.843 352.824 416.843 353.08C416.843 353.325 416.821 353.539 416.779 353.72H419.979Z" fill="#D7D7D7"/>
<path opacity="0.6" d="M605 443H390V340H469.719L483.73 354.571H605V443Z" fill="#D7D7D7" fill-opacity="0.2" stroke="#D7D7D7"/>
<path opacity="0.7" d="M394 360H482" stroke="#D7D7D7"/>
<rect opacity="0.2" x="605" y="342.854" width="4.29268" height="4.29268" transform="rotate(90 605 342.854)" fill="#D7D7D7"/>
<rect opacity="0.6" x="598.561" y="342.854" width="4.29268" height="4.29268" transform="rotate(90 598.561 342.854)" fill="#D7D7D7"/>
<rect opacity="0.2" x="579.959" y="342.854" width="4.29268" height="4.29268" transform="rotate(90 579.959 342.854)" fill="#D7D7D7"/>
<rect opacity="0.7" x="573.52" y="342.854" width="4.29268" height="4.29268" transform="rotate(90 573.52 342.854)" fill="#D7D7D7"/>
<rect opacity="0.2" x="567.081" y="342.854" width="4.29268" height="4.29268" transform="rotate(90 567.081 342.854)" fill="#D7D7D7"/>
<rect opacity="0.7" x="550.626" y="342.854" width="4.29268" height="4.29268" transform="rotate(90 550.626 342.854)" fill="#D7D7D7"/>
<rect opacity="0.3" x="527.732" y="342.854" width="4.29268" height="4.29268" transform="rotate(90 527.732 342.854)" fill="#D7D7D7"/>
<rect opacity="0.3" x="544.293" y="342.854" width="4.29268" height="4.29268" transform="rotate(90 544.293 342.854)" fill="#D7D7D7"/>
<rect opacity="0.3" x="515.293" y="342.854" width="4.29268" height="4.29268" transform="rotate(90 515.293 342.854)" fill="#D7D7D7"/>
<rect opacity="0.7" x="509.293" y="342.854" width="4.29268" height="4.29268" transform="rotate(90 509.293 342.854)" fill="#D7D7D7"/>
<rect opacity="0.1" x="521.293" y="342.854" width="4.29268" height="4.29268" transform="rotate(90 521.293 342.854)" fill="#D7D7D7"/>
<rect opacity="0.3" x="400" y="370" width="6.87023" height="6.87023" rx="2" fill="#D7D7D7"/>
<path opacity="0.7" d="M410.305 373.435H416.489" stroke="#D7D7D7"/>
<path opacity="0.7" d="M452.901 373.435H459.084" stroke="#D7D7D7"/>
<path opacity="0.7" d="M444.656 373.435H448.435" stroke="#D7D7D7"/>
<path opacity="0.7" d="M419.924 373.435H441.221" stroke="#D7D7D7"/>
<path opacity="0.7" d="M461.832 373.435H483.13" stroke="#D7D7D7"/>
<rect opacity="0.3" x="400" y="412" width="6.87023" height="6.87023" rx="2" fill="#D7D7D7"/>
<path opacity="0.7" d="M410.305 415.435H416.489" stroke="#D7D7D7"/>
<path opacity="0.7" d="M452.901 415.435H459.084" stroke="#D7D7D7"/>
<path opacity="0.7" d="M444.656 415.435H448.435" stroke="#D7D7D7"/>
<path opacity="0.7" d="M419.924 415.435H441.221" stroke="#D7D7D7"/>
<path opacity="0.7" d="M461.832 415.435H483.13" stroke="#D7D7D7"/>
<rect opacity="0.3" x="400" y="398" width="6.87023" height="6.87023" rx="2" fill="#D7D7D7"/>
<path opacity="0.7" d="M410.305 401.435H416.489" stroke="#D7D7D7"/>
<path opacity="0.7" d="M452.901 401.435H462.519" stroke="#D7D7D7"/>
<path opacity="0.7" d="M444.656 401.435H448.435" stroke="#D7D7D7"/>
<path opacity="0.7" d="M419.924 401.435H424.046" stroke="#D7D7D7"/>
<path opacity="0.7" d="M428.168 401.435H442.595" stroke="#D7D7D7"/>
<path opacity="0.7" d="M466.641 401.435L490 401.435" stroke="#D7D7D7"/>
<rect opacity="0.3" x="400" y="384" width="6.87023" height="6.87023" rx="2" fill="#D7D7D7"/>
<path opacity="0.7" d="M410.305 387.435H426.794" stroke="#D7D7D7"/>
<path opacity="0.7" d="M452.901 387.435H466.641" stroke="#D7D7D7"/>
<path opacity="0.7" d="M444.656 387.435H448.435" stroke="#D7D7D7"/>
<path opacity="0.7" d="M429.542 387.435L441.221 387.435" stroke="#D7D7D7"/>
<path opacity="0.7" d="M468.702 387.435L476.26 387.435" stroke="#D7D7D7"/>
<rect opacity="0.3" x="400" y="426" width="6.87023" height="6.87023" rx="2" fill="#D7D7D7"/>
<path opacity="0.7" d="M410.305 429.435H426.794" stroke="#D7D7D7"/>
<path opacity="0.7" d="M452.901 429.435H466.641" stroke="#D7D7D7"/>
<path opacity="0.7" d="M444.656 429.435H448.435" stroke="#D7D7D7"/>
<path opacity="0.7" d="M429.542 429.435L441.221 429.435" stroke="#D7D7D7"/>
<path opacity="0.7" d="M468.702 429.435L476.26 429.435" stroke="#D7D7D7"/>
<rect opacity="0.3" width="6.87023" height="6.87023" rx="2" transform="matrix(1 0 0 -1 506 432.87)" fill="#D7D7D7"/>
<path opacity="0.7" d="M516.305 429.435H522.489" stroke="#D7D7D7"/>
<path opacity="0.7" d="M558.901 429.435H565.084" stroke="#D7D7D7"/>
<path opacity="0.7" d="M550.656 429.435H554.435" stroke="#D7D7D7"/>
<path opacity="0.7" d="M525.924 429.435H547.221" stroke="#D7D7D7"/>
<path opacity="0.7" d="M567.832 429.435H589.13" stroke="#D7D7D7"/>
<rect opacity="0.3" width="6.87023" height="6.87023" rx="2" transform="matrix(1 0 0 -1 506 390.87)" fill="#D7D7D7"/>
<path opacity="0.7" d="M516.305 387.435H522.489" stroke="#D7D7D7"/>
<path opacity="0.7" d="M558.901 387.435H565.084" stroke="#D7D7D7"/>
<path opacity="0.7" d="M550.656 387.435H554.435" stroke="#D7D7D7"/>
<path opacity="0.7" d="M525.924 387.435H547.221" stroke="#D7D7D7"/>
<path opacity="0.7" d="M567.832 387.435H589.13" stroke="#D7D7D7"/>
<rect opacity="0.3" width="6.87023" height="6.87023" rx="2" transform="matrix(1 0 0 -1 506 404.87)" fill="#D7D7D7"/>
<path opacity="0.7" d="M516.305 401.435H522.489" stroke="#D7D7D7"/>
<path opacity="0.7" d="M558.901 401.435H568.519" stroke="#D7D7D7"/>
<path opacity="0.7" d="M550.656 401.435H554.435" stroke="#D7D7D7"/>
<path opacity="0.7" d="M525.924 401.435H530.046" stroke="#D7D7D7"/>
<path opacity="0.7" d="M534.168 401.435H548.595" stroke="#D7D7D7"/>
<path opacity="0.7" d="M572.641 401.435L596 401.435" stroke="#D7D7D7"/>
<rect opacity="0.3" width="6.87023" height="6.87023" rx="2" transform="matrix(1 0 0 -1 506 418.87)" fill="#D7D7D7"/>
<path opacity="0.7" d="M516.305 415.435H532.794" stroke="#D7D7D7"/>
<path opacity="0.7" d="M558.901 415.435H572.641" stroke="#D7D7D7"/>
<path opacity="0.7" d="M550.656 415.435H554.435" stroke="#D7D7D7"/>
<path opacity="0.7" d="M535.542 415.435L547.221 415.435" stroke="#D7D7D7"/>
<path opacity="0.7" d="M574.702 415.435L582.26 415.435" stroke="#D7D7D7"/>
<rect opacity="0.3" width="6.87023" height="6.87023" rx="2" transform="matrix(1 0 0 -1 506 376.87)" fill="#D7D7D7"/>
<path opacity="0.7" d="M516.305 373.435H532.794" stroke="#D7D7D7"/>
<path opacity="0.7" d="M558.901 373.435H572.641" stroke="#D7D7D7"/>
<path opacity="0.7" d="M550.656 373.435H554.435" stroke="#D7D7D7"/>
<path opacity="0.7" d="M535.542 373.435L547.221 373.435" stroke="#D7D7D7"/>
<path opacity="0.7" d="M574.702 373.435L582.26 373.435" stroke="#D7D7D7"/>
<g opacity="0.5">
<path d="M393.5 332.5H477L489.5 345H500.5" stroke="#D7D7D7"/>
<circle cx="391.5" cy="332.5" r="2.5" fill="#D9D9D9"/>
</g>
<g opacity="0.6" clip-path="url(#clip1_138_6955)">
<path opacity="0.4" d="M605 308.859C605 317.114 590 335 590 335C590 335 575 317.114 575 308.859C575 300.604 581.667 294 590 294C598.333 294 605 300.604 605 308.859Z" fill="#D7D7D7"/>
<ellipse cx="590" cy="309.229" rx="10.3846" ry="10.5429" fill="#D7D7D7"/>
</g>
<defs>
<filter id="filter0_f_138_6955" x="52.9916" y="302.639" width="116.017" height="73.7222" filterUnits="userSpaceOnUse" color-interpolation-filters="sRGB">
<feFlood flood-opacity="0" result="BackgroundImageFix"/>
<feBlend mode="normal" in="SourceGraphic" in2="BackgroundImageFix" result="shape"/>
<feGaussianBlur stdDeviation="2.5" result="effect1_foregroundBlur_138_6955"/>
</filter>
<linearGradient id="paint0_linear_138_6955" x1="341.5" y1="160.5" x2="437" y2="73.5" gradientUnits="userSpaceOnUse">
<stop stop-color="#D7D7D7"/>
<stop offset="1" stop-color="#D7D7D7" stop-opacity="0"/>
</linearGradient>
<linearGradient id="paint1_linear_138_6955" x1="62.5" y1="316.5" x2="286" y2="417" gradientUnits="userSpaceOnUse">
<stop stop-color="#D9D9D9"/>
<stop offset="0.388063" stop-color="#D9D9D9" stop-opacity="0.296875"/>
<stop offset="1" stop-color="#D9D9D9" stop-opacity="0"/>
</linearGradient>
<clipPath id="clip0_138_6955">
<rect x="30" y="98" width="356" height="356" rx="178" fill="white"/>
</clipPath>
<clipPath id="clip1_138_6955">
<rect width="30" height="41" fill="white" transform="translate(575 294)"/>
</clipPath>
</defs>
</svg>
