<svg width="92" height="75" viewBox="0 0 92 75" fill="none" xmlns="http://www.w3.org/2000/svg">
<path d="M8.75124 27.4101C10.6185 20.4882 16.3921 15.2121 24.4213 12.3571C32.4459 9.5037 42.6299 9.11402 53.0539 11.926C63.478 14.7379 72.0844 20.1965 77.5853 26.6985C83.0893 33.2042 85.4262 40.6681 83.559 47.59C81.6918 54.5119 75.9181 59.788 67.889 62.643C59.8644 65.4964 49.6804 65.8861 39.2563 63.0741C28.8323 60.2622 20.2259 54.8036 14.725 48.3016C9.22092 41.7959 6.884 34.332 8.75124 27.4101Z" stroke="#225F86" stroke-width="2"/>
<path d="M78.316 23.7496L78.647 22.2239L77.4912 23.2734L69.8274 30.2326L62.1635 23.2734L61.0077 22.2239L61.3387 23.7496L63.5336 33.8663L53.6748 37.0238L52.1881 37.5L53.6748 37.9762L63.5336 41.1337L61.3387 51.2504L61.0077 52.776L62.1635 51.7266L69.8274 44.7674L77.4912 51.7266L78.647 52.776L78.316 51.2504L76.1211 41.1337L85.9799 37.9762L87.4666 37.5L85.9799 37.0238L76.1211 33.8663L78.316 23.7496Z" fill="#E8C13E" stroke="#225F86"/>
</svg>
