<svg width="138" height="78" viewBox="0 0 138 78" fill="none" xmlns="http://www.w3.org/2000/svg">
<circle cx="10.6836" cy="39.5" r="10" fill="#CE7A18"/>
<circle cx="58.1836" cy="72.5" r="5.5" fill="#82BFE7"/>
<path d="M117.16 0.847493C117.093 0.640464 116.901 0.5 116.684 0.5C116.466 0.5 116.274 0.640464 116.207 0.847493L112.02 13.9223L98.6031 11.0114C98.3906 10.9653 98.1727 11.0617 98.064 11.25C97.9554 11.4383 97.9808 11.6752 98.1269 11.8361L107.356 22L98.1269 32.1639C97.9808 32.3248 97.9554 32.5617 98.064 32.75C98.1727 32.9383 98.3906 33.0347 98.6031 32.9886L112.02 30.0777L116.207 43.1525C116.274 43.3595 116.466 43.5 116.684 43.5C116.901 43.5 117.093 43.3595 117.16 43.1525L121.347 30.0777L134.764 32.9886C134.977 33.0347 135.194 32.9383 135.303 32.75C135.412 32.5617 135.386 32.3248 135.24 32.1639L126.011 22L135.24 11.8361C135.386 11.6752 135.412 11.4383 135.303 11.25C135.194 11.0617 134.977 10.9653 134.764 11.0114L121.347 13.9223L117.16 0.847493Z" fill="#E8C13E" stroke="#225F86" stroke-linejoin="round"/>
</svg>
