<svg width="180" height="66" viewBox="0 0 180 66" fill="none" xmlns="http://www.w3.org/2000/svg">
<path d="M7.75308 24.8973C9.33626 19.0284 14.2356 14.5392 21.0809 12.1052C27.9217 9.67271 36.6122 9.33804 45.5139 11.7393C54.4155 14.1406 61.7587 18.8005 66.4481 24.3433C71.1406 29.8898 73.1176 36.2339 71.5344 42.1027C69.9513 47.9716 65.0519 52.4608 58.2066 54.8948C51.3658 57.3273 42.6753 57.662 33.7737 55.2607C24.872 52.8594 17.5288 48.1995 12.8394 42.6567C8.14692 37.1102 6.16991 30.7661 7.75308 24.8973Z" stroke="#225F86" stroke-width="2"/>
<path d="M102.63 57.362H117.63" stroke="#CE7A18" stroke-width="4"/>
<path d="M110.13 50.0894L110.13 65.0894" stroke="#CE7A18" stroke-width="4"/>
<path d="M160.615 1.7873C160.559 1.56573 160.359 1.41064 160.13 1.41064C159.902 1.41064 159.702 1.56573 159.646 1.7873L156.894 12.5974L147.304 6.89932C147.108 6.78253 146.857 6.81395 146.695 6.97562C146.534 7.13729 146.502 7.38802 146.619 7.58458L152.317 17.1743L141.507 19.9261C141.286 19.9825 141.13 20.182 141.13 20.4106C141.13 20.6393 141.286 20.8388 141.507 20.8952L152.317 23.647L146.619 33.2367C146.502 33.4333 146.534 33.684 146.695 33.8457C146.857 34.0073 147.108 34.0388 147.304 33.922L156.894 28.2239L159.646 39.034C159.702 39.2556 159.902 39.4106 160.13 39.4106C160.359 39.4106 160.559 39.2556 160.615 39.034L163.367 28.2239L172.957 33.922C173.153 34.0388 173.404 34.0073 173.566 33.8457C173.727 33.684 173.759 33.4333 173.642 33.2367L167.944 23.647L178.754 20.8952C178.975 20.8388 179.13 20.6393 179.13 20.4106C179.13 20.182 178.975 19.9825 178.754 19.9261L167.944 17.1743L173.642 7.58458C173.759 7.38802 173.727 7.13729 173.566 6.97562C173.404 6.81395 173.153 6.78253 172.957 6.89932L163.367 12.5974L160.615 1.7873Z" fill="#82BFE7" stroke="#225F86" stroke-linejoin="round"/>
</svg>
