<svg width="180" height="66" viewBox="0 0 180 66" fill="none" xmlns="http://www.w3.org/2000/svg">
<path d="M7.77957 24.8973C9.36275 19.0284 14.2621 14.5392 21.1074 12.1052C27.9482 9.67271 36.6387 9.33804 45.5404 11.7393C54.442 14.1406 61.7852 18.8005 66.4746 24.3433C71.1671 29.8898 73.1441 36.2339 71.5609 42.1027C69.9778 47.9716 65.0784 52.4608 58.2331 54.8948C51.3923 57.3273 42.7018 57.662 33.8002 55.2607C24.8985 52.8594 17.5553 48.1995 12.8659 42.6567C8.17341 37.1102 6.1964 30.7661 7.77957 24.8973Z" stroke="#225F86" stroke-width="2"/>
<path d="M102.657 57.362H117.657" stroke="#A73200" stroke-width="4"/>
<path d="M110.157 50.0894L110.157 65.0894" stroke="#A73200" stroke-width="4"/>
<path d="M160.642 1.7873C160.585 1.56573 160.386 1.41064 160.157 1.41064C159.928 1.41064 159.729 1.56573 159.672 1.7873L156.921 12.5974L147.331 6.89932C147.134 6.78253 146.884 6.81395 146.722 6.97562C146.56 7.13729 146.529 7.38802 146.646 7.58458L152.344 17.1743L141.534 19.9261C141.312 19.9825 141.157 20.182 141.157 20.4106C141.157 20.6393 141.312 20.8388 141.534 20.8952L152.344 23.647L146.646 33.2367C146.529 33.4333 146.56 33.684 146.722 33.8457C146.884 34.0073 147.134 34.0388 147.331 33.922L156.921 28.2239L159.672 39.034C159.729 39.2556 159.928 39.4106 160.157 39.4106C160.386 39.4106 160.585 39.2556 160.642 39.034L163.393 28.2239L172.983 33.922C173.18 34.0388 173.43 34.0073 173.592 33.8457C173.754 33.684 173.785 33.4333 173.668 33.2367L167.97 23.647L178.78 20.8952C179.002 20.8388 179.157 20.6393 179.157 20.4106C179.157 20.182 179.002 19.9825 178.78 19.9261L167.97 17.1743L173.668 7.58458C173.785 7.38802 173.754 7.13729 173.592 6.97562C173.43 6.81395 173.18 6.78253 172.983 6.89932L163.393 12.5974L160.642 1.7873Z" fill="#82BFE7" stroke="#225F86" stroke-linejoin="round"/>
</svg>
