<svg width="138" height="79" viewBox="0 0 138 79" fill="none" xmlns="http://www.w3.org/2000/svg">
<circle cx="10.6836" cy="40.5" r="10" fill="#A73200"/>
<circle cx="58.1836" cy="73.5" r="5.5" fill="white"/>
<path d="M117.398 1.77124C117.298 1.4607 117.01 1.25 116.684 1.25C116.358 1.25 116.069 1.4607 115.969 1.77124L111.851 14.6298L98.6561 11.7671C98.3374 11.6979 98.0106 11.8426 97.8475 12.125C97.6845 12.4074 97.7226 12.7628 97.9418 13.0042L107.019 23L97.9418 32.9958C97.7226 33.2372 97.6845 33.5926 97.8475 33.875C98.0106 34.1574 98.3374 34.3021 98.6561 34.2329L111.851 31.3702L115.969 44.2288C116.069 44.5393 116.358 44.75 116.684 44.75C117.01 44.75 117.298 44.5393 117.398 44.2288L121.516 31.3702L134.711 34.2329C135.03 34.3021 135.357 34.1574 135.52 33.875C135.683 33.5926 135.645 33.2372 135.425 32.9958L126.349 23L135.425 13.0042C135.645 12.7628 135.683 12.4074 135.52 12.125C135.357 11.8426 135.03 11.6979 134.711 11.7671L121.516 14.6298L117.398 1.77124Z" fill="#E8C13E" stroke="#494949" stroke-width="1.5" stroke-linejoin="round"/>
</svg>
