<svg width="92" height="75" viewBox="0 0 92 75" fill="none" xmlns="http://www.w3.org/2000/svg">
<path d="M8.69399 27.41C10.5612 20.4881 16.3348 15.2121 24.364 12.357C32.3886 9.50364 42.5726 9.11395 52.9967 11.9259C63.4207 14.7379 72.0271 20.1964 77.528 26.6984C83.0321 33.2041 85.369 40.668 83.5017 47.59C81.6345 54.5119 75.8609 59.7879 67.8317 62.643C59.8071 65.4964 49.6231 65.886 39.1991 63.0741C28.775 60.2621 20.1686 54.8036 14.6677 48.3016C9.16367 41.7959 6.82675 34.332 8.69399 27.41Z" stroke="#E8C13E" stroke-width="2"/>
<path d="M78.2586 23.7496L78.5896 22.2239L77.4339 23.2734L69.77 30.2326L62.1061 23.2734L60.9503 22.2239L61.2813 23.7496L63.4762 33.8663L53.6175 37.0238L52.1307 37.5L53.6175 37.9762L63.4762 41.1337L61.2813 51.2504L60.9503 52.7761L62.1061 51.7266L69.77 44.7674L77.4339 51.7266L78.5896 52.7761L78.2586 51.2504L76.0637 41.1337L85.9225 37.9762L87.4093 37.5L85.9225 37.0238L76.0637 33.8663L78.2586 23.7496Z" fill="white" stroke="#12232C"/>
</svg>
